# 3ds Max Wavefront OBJ Exporter v0.97b - (c)2007 guruware
# File Created: 04.04.2020 16:00:23

mtllib spaceship.mtl

#
# object spaceship
#

v  -3.8114 -0.2648 -0.0639
v  -3.8114 0.3746 0.5698
v  -3.8114 0.3746 -0.0639
v  -3.8114 -0.2648 0.5698
v  -3.8114 0.3746 1.2035
v  -3.8114 -0.2648 1.2035
v  -3.8114 0.3746 1.8373
v  -3.8114 -0.2648 1.8373
v  -3.1777 -0.2648 -3.2326
v  -3.1777 0.3746 -0.0639
v  -3.1777 0.3746 -3.2326
v  -3.1777 -0.2648 -0.0639
v  -3.1777 -0.2648 1.8373
v  -3.1777 0.3746 4.3722
v  -3.1777 0.3746 1.8373
v  -3.1777 -0.2648 4.3722
v  -3.1777 0.3746 5.0060
v  -3.1777 -0.2648 5.0060
v  -2.5440 -0.2648 -5.1338
v  -2.5440 0.3746 -4.5001
v  -2.5440 0.3746 -5.1338
v  -2.5440 -0.2648 -4.5001
v  -2.5440 0.3746 -3.8664
v  -2.5440 -0.2648 -3.8664
v  -2.5440 0.3746 -3.2326
v  -2.5440 -0.2648 -3.2326
v  -1.9102 -0.2648 -1.3314
v  -1.9102 0.3746 -0.6977
v  -1.9102 0.3746 -1.3314
v  -1.9102 -0.2648 -0.6977
v  -1.2765 -0.2648 0.5698
v  -1.2765 0.3746 2.4710
v  -1.2765 0.3746 0.5698
v  -1.2765 -0.2648 1.8373
v  -1.2765 -0.2648 2.4710
v  -1.2765 -0.9041 -2.5989
v  -1.2765 -0.2648 -0.0639
v  -1.2765 -0.2648 -0.6977
v  -1.2765 -0.2648 -1.3314
v  -1.2765 -0.2648 -2.5989
v  -1.2765 -0.9041 -0.0639
v  -1.2765 -0.9041 0.5698
v  -1.2765 -0.9041 1.8373
v  -0.6427 -0.2648 2.4710
v  -0.6427 0.3746 3.1048
v  -0.6427 0.3746 2.4710
v  -0.6427 -0.2648 3.1048
v  -0.6427 -0.9041 1.8373
v  -0.6427 -0.2648 1.8373
v  -0.6427 -0.9041 2.4710
v  0.6247 -0.9041 -2.5989
v  0.6247 -0.2648 -1.3314
v  0.6247 -0.2648 -2.5989
v  0.6247 -0.2648 -0.6977
v  0.6247 -0.9041 -0.6977
v  1.8922 -0.2648 -5.1338
v  1.8922 0.3746 -4.5001
v  1.8922 0.3746 -5.1338
v  1.8922 -0.2648 -4.5001
v  1.8922 0.3746 -3.8664
v  1.8922 -0.2648 -3.8664
v  1.8922 0.3746 -3.2326
v  1.8922 -0.2648 -3.2326
v  1.8922 0.3746 -1.9651
v  1.8922 -0.2648 -1.9651
v  1.8922 -0.2648 0.5698
v  1.8922 0.3746 1.2035
v  1.8922 0.3746 0.5698
v  1.8922 -0.2648 1.2035
v  2.5260 -0.2648 -1.9651
v  2.5260 0.3746 -0.6977
v  2.5260 0.3746 -1.9651
v  2.5260 -0.2648 -0.6977
v  2.5260 -0.2648 1.2035
v  2.5260 0.3746 4.3722
v  2.5260 0.3746 1.2035
v  2.5260 -0.2648 4.3722
v  2.5260 0.3746 5.0060
v  2.5260 -0.2648 5.0060
v  -2.5440 0.3746 -1.9651
v  -2.5440 0.3746 -0.6977
v  -2.5440 -0.2648 -1.9651
v  -2.5440 -0.2648 -0.6977
v  -2.5440 0.3746 1.2035
v  -2.5440 0.3746 4.3722
v  -2.5440 -0.2648 1.2035
v  -2.5440 0.3746 5.0060
v  -2.5440 -0.2648 4.3722
v  -2.5440 -0.2648 5.0060
v  -1.9102 0.3746 -5.1338
v  -1.9102 0.3746 -4.5001
v  -1.9102 -0.2648 -5.1338
v  -1.9102 0.3746 -3.8664
v  -1.9102 -0.2648 -4.5001
v  -1.9102 0.3746 -3.2326
v  -1.9102 -0.2648 -3.8664
v  -1.9102 0.3746 -1.9651
v  -1.9102 -0.2648 -3.2326
v  -1.9102 -0.2648 -1.9651
v  -1.9102 0.3746 0.5698
v  -1.9102 0.3746 1.2035
v  -1.9102 -0.2648 0.5698
v  -1.9102 -0.2648 1.2035
v  -0.6427 -0.2648 -2.5989
v  -0.6427 -0.2648 -1.3314
v  -0.6427 -0.9041 -2.5989
v  -0.6427 -0.2648 -0.6977
v  -0.6427 -0.9041 -0.6977
v  0.6247 0.3746 2.4710
v  0.6247 0.3746 3.1048
v  0.6247 -0.2648 2.4710
v  0.6247 -0.2648 3.1048
v  0.6247 -0.2648 1.8373
v  0.6247 -0.9041 1.8373
v  0.6247 -0.9041 2.4710
v  1.2585 0.3746 0.5698
v  1.2585 0.3746 2.4710
v  1.2585 -0.2648 0.5698
v  1.2585 -0.2648 1.8373
v  1.2585 -0.2648 2.4710
v  1.2585 -0.2648 -0.6977
v  1.2585 -0.2648 -0.0639
v  1.2585 -0.9041 -2.5989
v  1.2585 -0.2648 -2.5989
v  1.2585 -0.2648 -1.3314
v  1.2585 -0.9041 -0.0639
v  1.2585 -0.9041 0.5698
v  1.2585 -0.9041 1.8373
v  1.8922 0.3746 -1.3314
v  1.8922 0.3746 -0.6977
v  1.8922 -0.2648 -1.3314
v  1.8922 -0.2648 -0.6977
v  2.5260 0.3746 -5.1338
v  2.5260 0.3746 -4.5001
v  2.5260 -0.2648 -5.1338
v  2.5260 0.3746 -3.8664
v  2.5260 -0.2648 -4.5001
v  2.5260 0.3746 -3.2326
v  2.5260 -0.2648 -3.8664
v  2.5260 -0.2648 -3.2326
v  3.1597 0.3746 -3.2326
v  3.1597 0.3746 -0.0639
v  3.1597 -0.2648 -3.2326
v  3.1597 -0.2648 -0.0639
v  3.1597 0.3746 1.8373
v  3.1597 0.3746 4.3722
v  3.1597 -0.2648 1.8373
v  3.1597 0.3746 5.0060
v  3.1597 -0.2648 4.3722
v  3.1597 -0.2648 5.0060
v  3.7934 0.3746 -0.0639
v  3.7934 0.3746 0.5698
v  3.7934 -0.2648 -0.0639
v  3.7934 0.3746 1.2035
v  3.7934 -0.2648 0.5698
v  3.7934 0.3746 1.8373
v  3.7934 -0.2648 1.2035
v  3.7934 -0.2648 1.8373
v  -1.2765 0.3746 -1.3314
v  -0.6427 0.3746 -1.3314
v  0.6247 0.3746 -1.3314
v  1.2585 0.3746 -1.3314
v  -1.2765 0.3746 -0.6977
v  -0.6427 0.3746 -0.6977
v  0.6247 0.3746 -0.6977
v  1.2585 0.3746 -0.6977
v  -2.5440 0.3746 -0.0639
v  -1.9102 0.3746 -0.0639
v  -1.2765 0.3746 -0.0639
v  -0.6427 0.3746 -0.0639
v  0.6247 0.3746 -0.0639
v  1.2585 0.3746 -0.0639
v  1.8922 0.3746 -0.0639
v  2.5260 0.3746 -0.0639
v  -3.1777 0.3746 0.5698
v  -2.5440 0.3746 0.5698
v  -0.6427 0.3746 0.5698
v  0.6247 0.3746 0.5698
v  2.5260 0.3746 0.5698
v  3.1597 0.3746 0.5698
v  -3.1777 0.3746 1.2035
v  3.1597 0.3746 1.2035
v  -2.5440 -0.2648 -0.0639
v  -1.9102 -0.2648 -0.0639
v  1.8922 -0.2648 -0.0639
v  2.5260 -0.2648 -0.0639
v  -3.1777 -0.2648 0.5698
v  -2.5440 -0.2648 0.5698
v  2.5260 -0.2648 0.5698
v  3.1597 -0.2648 0.5698
v  -3.1777 -0.2648 1.2035
v  3.1597 -0.2648 1.2035
v  -0.6427 -0.9041 -0.0639
v  0.6247 -0.9041 -0.0639
v  -0.6427 -0.9041 0.5698
v  0.6247 -0.9041 0.5698
v  -0.6427 -0.9041 1.2035
v  0.6247 -0.9041 1.2035
# 198 vertices

vn -1.0000 0.0000 0.0000
vn 1.0000 -0.0000 -0.0000
vn -0.0000 0.0000 -1.0000
vn 0.0000 0.0000 1.0000
vn 0.0000 1.0000 -0.0000
vn -0.0000 -1.0000 0.0000
# 6 vertex normals

vt 0.9668 0.5000 0.0000
vt 0.6738 0.5000 0.0000
vt 0.9785 0.5000 0.0000
vt 0.9863 0.5000 0.0000
vt 0.0410 0.5000 0.0000
vt 0.9902 0.5000 0.0000
vt 0.9590 0.5000 0.0000
vt 0.3066 0.5000 0.0000
vt 0.7988 0.5000 0.0000
vt 0.7402 0.5000 0.0000
# 10 texture coords

o spaceship
g spaceship
usemtl spaceship_palette
s 1
f 1/1/1 2/1/1 3/1/1 
f 4/2/1 5/2/1 2/2/1 
f 4/1/1 2/1/1 1/1/1 
f 6/3/1 7/3/1 5/3/1 
f 6/2/1 5/2/1 4/2/1 
f 8/3/1 7/3/1 6/3/1 
f 9/3/1 10/3/1 11/3/1 
f 12/3/1 10/3/1 9/3/1 
f 13/3/1 14/3/1 15/3/1 
f 16/4/1 17/4/1 14/4/1 
f 16/3/1 14/3/1 13/3/1 
f 18/4/1 17/4/1 16/4/1 
f 19/5/1 20/5/1 21/5/1 
f 22/4/1 23/4/1 20/4/1 
f 22/5/1 20/5/1 19/5/1 
f 24/6/1 25/6/1 23/6/1 
f 24/4/1 23/4/1 22/4/1 
f 26/6/1 25/6/1 24/6/1 
f 27/2/1 28/2/1 29/2/1 
f 30/2/1 28/2/1 27/2/1 
f 31/7/1 32/7/1 33/7/1 
f 34/7/1 32/7/1 31/7/1 
f 35/7/1 32/7/1 34/7/1 
f 36/3/1 37/3/1 38/3/1 
f 36/3/1 39/3/1 40/3/1 
f 36/3/1 38/3/1 39/3/1 
f 41/1/1 31/1/1 37/1/1 
f 41/3/1 37/3/1 36/3/1 
f 42/7/1 34/7/1 31/7/1 
f 42/1/1 31/1/1 41/1/1 
f 43/7/1 34/7/1 42/7/1 
f 44/7/1 45/7/1 46/7/1 
f 47/7/1 45/7/1 44/7/1 
f 48/8/1 44/8/1 49/8/1 
f 50/8/1 44/8/1 48/8/1 
f 51/3/1 52/3/1 53/3/1 
f 51/3/1 54/3/1 52/3/1 
f 55/3/1 54/3/1 51/3/1 
f 56/5/1 57/5/1 58/5/1 
f 59/4/1 60/4/1 57/4/1 
f 59/5/1 57/5/1 56/5/1 
f 61/6/1 62/6/1 60/6/1 
f 61/4/1 60/4/1 59/4/1 
f 63/3/1 64/3/1 62/3/1 
f 63/6/1 62/6/1 61/6/1 
f 65/3/1 64/3/1 63/3/1 
f 66/9/1 67/9/1 68/9/1 
f 69/9/1 67/9/1 66/9/1 
f 70/3/1 71/3/1 72/3/1 
f 73/3/1 71/3/1 70/3/1 
f 74/3/1 75/3/1 76/3/1 
f 77/4/1 78/4/1 75/4/1 
f 77/3/1 75/3/1 74/3/1 
f 79/4/1 78/4/1 77/4/1 
f 80/3/2 81/3/2 82/3/2 
f 82/3/2 81/3/2 83/3/2 
f 84/3/2 85/3/2 86/3/2 
f 85/4/2 87/4/2 88/4/2 
f 86/3/2 85/3/2 88/3/2 
f 88/4/2 87/4/2 89/4/2 
f 90/5/2 91/5/2 92/5/2 
f 91/4/2 93/4/2 94/4/2 
f 92/5/2 91/5/2 94/5/2 
f 93/6/2 95/6/2 96/6/2 
f 94/4/2 93/4/2 96/4/2 
f 95/3/2 97/3/2 98/3/2 
f 96/6/2 95/6/2 98/6/2 
f 98/3/2 97/3/2 99/3/2 
f 100/9/2 101/9/2 102/9/2 
f 102/9/2 101/9/2 103/9/2 
f 104/3/2 105/3/2 106/3/2 
f 105/3/2 107/3/2 106/3/2 
f 106/3/2 107/3/2 108/3/2 
f 109/7/2 110/7/2 111/7/2 
f 111/7/2 110/7/2 112/7/2 
f 113/8/2 111/8/2 114/8/2 
f 114/8/2 111/8/2 115/8/2 
f 116/7/2 117/7/2 118/7/2 
f 118/7/2 117/7/2 119/7/2 
f 119/7/2 117/7/2 120/7/2 
f 121/3/2 122/3/2 123/3/2 
f 124/3/2 125/3/2 123/3/2 
f 125/3/2 121/3/2 123/3/2 
f 122/1/2 118/1/2 126/1/2 
f 123/3/2 122/3/2 126/3/2 
f 118/7/2 119/7/2 127/7/2 
f 126/1/2 118/1/2 127/1/2 
f 127/7/2 119/7/2 128/7/2 
f 129/2/2 130/2/2 131/2/2 
f 131/2/2 130/2/2 132/2/2 
f 133/5/2 134/5/2 135/5/2 
f 134/4/2 136/4/2 137/4/2 
f 135/5/2 134/5/2 137/5/2 
f 136/6/2 138/6/2 139/6/2 
f 137/4/2 136/4/2 139/4/2 
f 139/6/2 138/6/2 140/6/2 
f 141/3/2 142/3/2 143/3/2 
f 143/3/2 142/3/2 144/3/2 
f 145/3/2 146/3/2 147/3/2 
f 146/4/2 148/4/2 149/4/2 
f 147/3/2 146/3/2 149/3/2 
f 149/4/2 148/4/2 150/4/2 
f 151/1/2 152/1/2 153/1/2 
f 152/2/2 154/2/2 155/2/2 
f 153/1/2 152/1/2 155/1/2 
f 154/3/2 156/3/2 157/3/2 
f 155/2/2 154/2/2 157/2/2 
f 157/3/2 156/3/2 158/3/2 
f 90/5/3 19/5/3 21/5/3 
f 92/5/3 19/5/3 90/5/3 
f 133/5/3 56/5/3 58/5/3 
f 135/5/3 56/5/3 133/5/3 
f 25/3/3 9/3/3 11/3/3 
f 26/3/3 9/3/3 25/3/3 
f 141/3/3 140/3/3 138/3/3 
f 143/3/3 140/3/3 141/3/3 
f 104/3/3 36/3/3 40/3/3 
f 106/3/3 36/3/3 104/3/3 
f 124/3/3 51/3/3 53/3/3 
f 123/3/3 51/3/3 124/3/3 
f 159/2/3 27/2/3 29/2/3 
f 39/2/3 27/2/3 159/2/3 
f 160/3/3 39/3/3 159/3/3 
f 105/3/3 39/3/3 160/3/3 
f 161/5/3 105/5/3 160/5/3 
f 52/5/3 105/5/3 161/5/3 
f 162/3/3 52/3/3 161/3/3 
f 125/3/3 52/3/3 162/3/3 
f 129/2/3 125/2/3 162/2/3 
f 131/2/3 125/2/3 129/2/3 
f 28/2/3 83/2/3 81/2/3 
f 30/2/3 83/2/3 28/2/3 
f 54/4/3 108/4/3 107/4/3 
f 55/4/3 108/4/3 54/4/3 
f 71/2/3 132/2/3 130/2/3 
f 73/2/3 132/2/3 71/2/3 
f 10/1/3 1/1/3 3/1/3 
f 12/1/3 1/1/3 10/1/3 
f 151/1/3 144/1/3 142/1/3 
f 153/1/3 144/1/3 151/1/3 
f 80/3/4 82/3/4 97/3/4 
f 97/3/4 82/3/4 99/3/4 
f 64/3/4 65/3/4 72/3/4 
f 72/3/4 65/3/4 70/3/4 
f 100/9/4 102/9/4 33/9/4 
f 33/9/4 102/9/4 31/9/4 
f 116/9/4 118/9/4 68/9/4 
f 68/9/4 118/9/4 66/9/4 
f 84/9/4 86/9/4 101/9/4 
f 101/9/4 86/9/4 103/9/4 
f 67/9/4 69/9/4 76/9/4 
f 76/9/4 69/9/4 74/9/4 
f 7/3/4 8/3/4 15/3/4 
f 15/3/4 8/3/4 13/3/4 
f 34/7/4 43/7/4 49/7/4 
f 49/7/4 43/7/4 48/7/4 
f 113/7/4 114/7/4 119/7/4 
f 119/7/4 114/7/4 128/7/4 
f 145/3/4 147/3/4 156/3/4 
f 156/3/4 147/3/4 158/3/4 
f 32/7/4 35/7/4 46/7/4 
f 46/7/4 35/7/4 44/7/4 
f 44/8/4 50/8/4 111/8/4 
f 111/8/4 50/8/4 115/8/4 
f 109/7/4 111/7/4 117/7/4 
f 117/7/4 111/7/4 120/7/4 
f 45/7/4 47/7/4 110/7/4 
f 110/7/4 47/7/4 112/7/4 
f 17/4/4 18/4/4 87/4/4 
f 87/4/4 18/4/4 89/4/4 
f 78/4/4 79/4/4 148/4/4 
f 148/4/4 79/4/4 150/4/4 
f 20/5/5 90/5/5 21/5/5 
f 91/5/5 90/5/5 20/5/5 
f 57/5/5 133/5/5 58/5/5 
f 134/5/5 133/5/5 57/5/5 
f 23/4/5 91/4/5 20/4/5 
f 93/4/5 91/4/5 23/4/5 
f 60/4/5 134/4/5 57/4/5 
f 136/4/5 134/4/5 60/4/5 
f 25/6/5 93/6/5 23/6/5 
f 95/6/5 93/6/5 25/6/5 
f 62/6/5 136/6/5 60/6/5 
f 138/6/5 136/6/5 62/6/5 
f 80/3/5 95/3/5 25/3/5 
f 80/3/5 25/3/5 11/3/5 
f 97/3/5 95/3/5 80/3/5 
f 64/3/5 138/3/5 62/3/5 
f 64/3/5 141/3/5 138/3/5 
f 72/3/5 141/3/5 64/3/5 
f 81/3/5 80/3/5 11/3/5 
f 28/2/5 159/2/5 29/2/5 
f 163/3/5 160/3/5 159/3/5 
f 163/2/5 159/2/5 28/2/5 
f 164/5/5 161/5/5 160/5/5 
f 164/3/5 160/3/5 163/3/5 
f 165/3/5 162/3/5 161/3/5 
f 165/5/5 161/5/5 164/5/5 
f 166/2/5 129/2/5 162/2/5 
f 166/3/5 162/3/5 165/3/5 
f 130/2/5 129/2/5 166/2/5 
f 71/3/5 141/3/5 72/3/5 
f 10/3/5 81/3/5 11/3/5 
f 167/2/5 28/2/5 81/2/5 
f 167/3/5 81/3/5 10/3/5 
f 168/10/5 163/10/5 28/10/5 
f 168/2/5 28/2/5 167/2/5 
f 169/3/5 164/3/5 163/3/5 
f 169/10/5 163/10/5 168/10/5 
f 170/4/5 165/4/5 164/4/5 
f 170/3/5 164/3/5 169/3/5 
f 171/3/5 166/3/5 165/3/5 
f 171/4/5 165/4/5 170/4/5 
f 172/10/5 130/10/5 166/10/5 
f 172/3/5 166/3/5 171/3/5 
f 173/2/5 71/2/5 130/2/5 
f 173/10/5 130/10/5 172/10/5 
f 174/3/5 141/3/5 71/3/5 
f 174/2/5 71/2/5 173/2/5 
f 142/3/5 141/3/5 174/3/5 
f 2/1/5 10/1/5 3/1/5 
f 175/2/5 167/2/5 10/2/5 
f 175/1/5 10/1/5 2/1/5 
f 176/10/5 168/10/5 167/10/5 
f 176/2/5 167/2/5 175/2/5 
f 100/9/5 169/9/5 168/9/5 
f 100/10/5 168/10/5 176/10/5 
f 33/1/5 170/1/5 169/1/5 
f 33/9/5 169/9/5 100/9/5 
f 177/6/5 171/6/5 170/6/5 
f 177/1/5 170/1/5 33/1/5 
f 178/1/5 172/1/5 171/1/5 
f 178/6/5 171/6/5 177/6/5 
f 116/9/5 173/9/5 172/9/5 
f 116/1/5 172/1/5 178/1/5 
f 68/10/5 174/10/5 173/10/5 
f 68/9/5 173/9/5 116/9/5 
f 179/2/5 142/2/5 174/2/5 
f 179/10/5 174/10/5 68/10/5 
f 180/1/5 151/1/5 142/1/5 
f 180/2/5 142/2/5 179/2/5 
f 152/1/5 151/1/5 180/1/5 
f 5/2/5 175/2/5 2/2/5 
f 181/10/5 176/10/5 175/10/5 
f 181/2/5 175/2/5 5/2/5 
f 84/9/5 100/9/5 176/9/5 
f 84/10/5 176/10/5 181/10/5 
f 101/9/5 100/9/5 84/9/5 
f 67/9/5 179/9/5 68/9/5 
f 76/10/5 180/10/5 179/10/5 
f 76/9/5 179/9/5 67/9/5 
f 182/2/5 152/2/5 180/2/5 
f 182/10/5 180/10/5 76/10/5 
f 154/2/5 152/2/5 182/2/5 
f 7/3/5 181/3/5 5/3/5 
f 7/3/5 84/3/5 181/3/5 
f 15/3/5 84/3/5 7/3/5 
f 145/3/5 154/3/5 182/3/5 
f 145/3/5 182/3/5 76/3/5 
f 156/3/5 154/3/5 145/3/5 
f 32/7/5 177/7/5 33/7/5 
f 32/7/5 178/7/5 177/7/5 
f 32/7/5 116/7/5 178/7/5 
f 46/7/5 116/7/5 32/7/5 
f 109/7/5 116/7/5 46/7/5 
f 117/7/5 116/7/5 109/7/5 
f 45/7/5 109/7/5 46/7/5 
f 110/7/5 109/7/5 45/7/5 
f 14/3/5 84/3/5 15/3/5 
f 85/3/5 84/3/5 14/3/5 
f 75/3/5 145/3/5 76/3/5 
f 146/3/5 145/3/5 75/3/5 
f 17/4/5 85/4/5 14/4/5 
f 87/4/5 85/4/5 17/4/5 
f 78/4/5 146/4/5 75/4/5 
f 148/4/5 146/4/5 78/4/5 
f 39/3/5 104/3/5 40/3/5 
f 105/3/5 104/3/5 39/3/5 
f 52/3/5 124/3/5 53/3/5 
f 125/3/5 124/3/5 52/3/5 
f 19/5/6 92/5/6 22/5/6 
f 22/5/6 92/5/6 94/5/6 
f 56/5/6 135/5/6 59/5/6 
f 59/5/6 135/5/6 137/5/6 
f 22/4/6 94/4/6 24/4/6 
f 24/4/6 94/4/6 96/4/6 
f 59/4/6 137/4/6 61/4/6 
f 61/4/6 137/4/6 139/4/6 
f 24/6/6 96/6/6 26/6/6 
f 26/6/6 96/6/6 98/6/6 
f 61/6/6 139/6/6 63/6/6 
f 63/6/6 139/6/6 140/6/6 
f 26/3/6 98/3/6 82/3/6 
f 9/3/6 26/3/6 82/3/6 
f 82/3/6 98/3/6 99/3/6 
f 63/3/6 140/3/6 65/3/6 
f 140/3/6 143/3/6 65/3/6 
f 65/3/6 143/3/6 70/3/6 
f 9/3/6 82/3/6 83/3/6 
f 27/2/6 39/2/6 30/2/6 
f 30/2/6 39/2/6 38/2/6 
f 105/5/6 52/5/6 107/5/6 
f 107/5/6 52/5/6 54/5/6 
f 125/2/6 131/2/6 121/2/6 
f 121/2/6 131/2/6 132/2/6 
f 70/3/6 143/3/6 73/3/6 
f 9/3/6 83/3/6 12/3/6 
f 83/2/6 30/2/6 183/2/6 
f 12/3/6 83/3/6 183/3/6 
f 30/10/6 38/10/6 184/10/6 
f 183/2/6 30/2/6 184/2/6 
f 184/10/6 38/10/6 37/10/6 
f 121/10/6 132/10/6 122/10/6 
f 132/2/6 73/2/6 185/2/6 
f 122/10/6 132/10/6 185/10/6 
f 73/3/6 143/3/6 186/3/6 
f 185/2/6 73/2/6 186/2/6 
f 186/3/6 143/3/6 144/3/6 
f 1/1/6 12/1/6 4/1/6 
f 12/2/6 183/2/6 187/2/6 
f 4/1/6 12/1/6 187/1/6 
f 183/10/6 184/10/6 188/10/6 
f 187/2/6 183/2/6 188/2/6 
f 184/9/6 37/9/6 102/9/6 
f 188/10/6 184/10/6 102/10/6 
f 102/9/6 37/9/6 31/9/6 
f 122/9/6 185/9/6 118/9/6 
f 185/10/6 186/10/6 66/10/6 
f 118/9/6 185/9/6 66/9/6 
f 186/2/6 144/2/6 189/2/6 
f 66/10/6 186/10/6 189/10/6 
f 144/1/6 153/1/6 190/1/6 
f 189/2/6 144/2/6 190/2/6 
f 190/1/6 153/1/6 155/1/6 
f 4/2/6 187/2/6 6/2/6 
f 187/10/6 188/10/6 191/10/6 
f 6/2/6 187/2/6 191/2/6 
f 188/9/6 102/9/6 86/9/6 
f 191/10/6 188/10/6 86/10/6 
f 86/9/6 102/9/6 103/9/6 
f 66/9/6 189/9/6 69/9/6 
f 189/10/6 190/10/6 74/10/6 
f 69/9/6 189/9/6 74/9/6 
f 190/2/6 155/2/6 192/2/6 
f 74/10/6 190/10/6 192/10/6 
f 192/2/6 155/2/6 157/2/6 
f 6/3/6 191/3/6 8/3/6 
f 191/3/6 86/3/6 8/3/6 
f 8/3/6 86/3/6 13/3/6 
f 192/3/6 157/3/6 147/3/6 
f 74/3/6 192/3/6 147/3/6 
f 147/3/6 157/3/6 158/3/6 
f 34/7/6 49/7/6 35/7/6 
f 35/7/6 49/7/6 44/7/6 
f 113/7/6 119/7/6 111/7/6 
f 111/7/6 119/7/6 120/7/6 
f 44/7/6 111/7/6 47/7/6 
f 47/7/6 111/7/6 112/7/6 
f 13/3/6 86/3/6 16/3/6 
f 16/3/6 86/3/6 88/3/6 
f 74/3/6 147/3/6 77/3/6 
f 77/3/6 147/3/6 149/3/6 
f 16/4/6 88/4/6 18/4/6 
f 18/4/6 88/4/6 89/4/6 
f 77/4/6 149/4/6 79/4/6 
f 79/4/6 149/4/6 150/4/6 
f 36/3/6 106/3/6 108/3/6 
f 51/3/6 123/3/6 55/3/6 
f 36/3/6 108/3/6 41/3/6 
f 108/4/6 55/4/6 193/4/6 
f 41/3/6 108/3/6 193/3/6 
f 55/3/6 123/3/6 194/3/6 
f 193/4/6 55/4/6 194/4/6 
f 194/3/6 123/3/6 126/3/6 
f 41/1/6 193/1/6 42/1/6 
f 193/6/6 194/6/6 195/6/6 
f 42/1/6 193/1/6 195/1/6 
f 194/1/6 126/1/6 196/1/6 
f 195/6/6 194/6/6 196/6/6 
f 196/1/6 126/1/6 127/1/6 
f 42/7/6 195/7/6 197/7/6 
f 195/3/6 196/3/6 197/3/6 
f 196/7/6 127/7/6 198/7/6 
f 197/3/6 196/3/6 198/3/6 
f 42/7/6 197/7/6 43/7/6 
f 197/8/6 198/8/6 48/8/6 
f 43/7/6 197/7/6 48/7/6 
f 198/7/6 127/7/6 114/7/6 
f 48/8/6 198/8/6 114/8/6 
f 114/7/6 127/7/6 128/7/6 
f 48/8/6 114/8/6 50/8/6 
f 50/8/6 114/8/6 115/8/6 
# 392 faces

