# 3ds Max Wavefront OBJ Exporter v0.97b - (c)2007 guruware
# File Created: 22.03.2020 13:34:42

mtllib spaceship.mtl

#
# object Box002
#

v  0.0000 8.6591 10.0000
v  0.0000 4.3566 -0.0000
v  -5.5354 4.3566 -0.0000
v  -10.0000 8.6591 10.0000
v  -8.5370 8.6591 10.0000
v  -1.4630 8.6591 10.0000
v  0.0000 -1.2450 -35.6880
v  -2.7054 -1.2450 -35.6880
v  0.0000 23.4752 34.4942
v  -2.1623 22.2376 34.4942
v  -6.6214 18.7624 -0.0000
v  0.0000 20.0000 -0.0000
v  -6.6214 18.7624 -10.0000
v  0.0000 20.0000 -10.0000
v  -6.1548 14.8211 34.4942
v  -1.0548 14.8211 34.4942
v  -7.2096 14.8211 34.4942
v  -6.4712 15.9061 34.4942
v  -2.9007 21.1526 34.4942
v  0.0000 14.8211 34.4942
v  -10.0000 8.5808 -6.8543
v  -10.0000 10.0000 -6.8543
v  -7.1700 6.6462 -35.6880
v  -5.1329 10.0000 -35.6880
v  -8.3621 10.0000 -20.6546
v  -7.1157 17.8089 -1.0028
v  -9.5057 13.1986 -5.8515
v  -10.0000 12.2451 -6.8543
v  -1.2909 0.0000 -55.6880
v  0.0000 0.0000 -55.6880
v  0.0000 1.8163 -55.6880
v  0.0000 -1.2450 -45.6880
v  -2.1652 -1.2450 -45.6880
v  -3.7883 6.3827 -45.6880
v  0.0000 6.3827 -45.6880
v  -7.1700 4.8355 -35.6880
v  -48.7966 12.4794 -2.3712
v  -48.7966 10.9970 -2.4176
v  -48.2369 10.0941 -9.7876
v  -48.7966 9.9987 -3.0088
v  -47.0448 7.4245 -13.5664
v  -47.0448 8.7399 -12.9636
v  -26.9735 10.4362 -4.9132
v  -31.8231 10.5608 -4.3586
v  -29.5996 6.2918 -23.2446
v  -24.6152 5.9682 -26.0098
v  -28.0834 2.6306 -21.4722
v  -30.0034 6.3346 -5.1728
v  -28.2195 6.2022 -5.3573
v  -26.3069 2.6031 -22.4787
v  8.5370 8.6591 10.0000
v  10.0000 8.6591 10.0000
v  5.5354 4.3566 -0.0000
v  1.4630 8.6591 10.0000
v  2.7054 -1.2450 -35.6880
v  6.6214 18.7624 -0.0000
v  2.1623 22.2376 34.4942
v  6.6214 18.7624 -10.0000
v  6.1548 14.8211 34.4942
v  1.0548 14.8211 34.4942
v  6.4712 15.9061 34.4942
v  7.2096 14.8211 34.4942
v  2.9007 21.1526 34.4942
v  10.0000 10.0000 -6.8543
v  10.0000 8.5808 -6.8543
v  7.1700 6.6462 -35.6880
v  8.3621 10.0000 -20.6546
v  5.1329 10.0000 -35.6880
v  7.1157 17.8089 -1.0028
v  9.5057 13.1986 -5.8515
v  10.0000 12.2451 -6.8543
v  1.2909 0.0000 -55.6880
v  2.1652 -1.2450 -45.6880
v  3.7883 6.3827 -45.6880
v  7.1700 4.8355 -35.6880
v  48.7966 12.4794 -2.3712
v  48.2369 10.0941 -9.7876
v  48.7966 10.9970 -2.4176
v  47.0448 8.7399 -12.9636
v  47.0448 7.4245 -13.5664
v  48.7966 9.9987 -3.0088
v  31.8231 10.5608 -4.3586
v  26.9735 10.4362 -4.9132
v  29.5996 6.2918 -23.2446
v  24.6152 5.9682 -26.0098
v  28.2195 6.2022 -5.3573
v  30.0034 6.3346 -5.1728
v  28.0834 2.6306 -21.4722
v  26.3069 2.6031 -22.4787
v  0.0000 5.1233 42.4568
v  0.0000 -1.0388 35.5795
v  -1.4630 -1.0388 35.5795
v  -1.0548 5.1233 42.4568
v  1.0548 5.1233 42.4568
v  1.4630 -1.0388 35.5795
v  -15.2898 28.6902 22.0905
v  -10.8307 32.1654 45.5305
v  -11.5691 31.0804 45.5305
v  -15.7841 27.7368 21.0878
v  11.5691 31.0804 45.5305
v  10.8307 32.1654 45.5305
v  15.2898 28.6902 22.0905
v  15.7841 27.7368 21.0878
v  0.0000 17.7921 -26.6978
v  0.0000 13.7372 -37.1140
v  2.0035 13.8725 -36.7183
v  0.0000 12.4675 -40.6241
v  -2.0035 13.8725 -36.7183
v  -25.2158 4.7736 -24.7563
v  -29.0613 4.9921 -22.6154
v  29.0613 4.9921 -22.6154
v  25.2158 4.7736 -24.7563
# 112 vertices

vn 0.0000 -0.9186 0.3952
vn 0.0000 -0.9608 0.2773
vn 0.0000 -0.9559 0.2937
vn 0.0000 -0.9879 0.1551
vn 0.0000 0.9993 -0.0370
vn -0.4966 0.8677 -0.0232
vn -0.1910 0.9805 -0.0453
vn -0.0000 0.9987 -0.0505
vn -0.1837 0.9830 -0.0000
vn 0.0000 1.0000 -0.0000
vn 0.0000 -0.9698 0.2440
vn 0.0000 -0.6148 0.7887
vn 0.0000 -0.3936 0.9193
vn 0.0000 -0.7625 0.6470
vn 0.0000 0.0000 1.0000
vn -0.9865 0.1620 0.0236
vn -0.7034 -0.7107 0.0102
vn -0.8646 -0.5022 0.0127
vn -0.9951 0.0714 0.0676
vn -0.8472 0.5306 0.0258
vn -0.8406 0.5106 -0.1806
vn -0.8519 0.4914 -0.1812
vn -0.8461 0.5010 -0.1818
vn -0.8928 0.4502 0.0175
vn -0.8259 0.5620 0.0451
vn -0.8299 0.5568 0.0352
vn -0.9427 0.3286 0.0581
vn -0.9030 0.4155 -0.1090
vn -0.8878 0.4602 -0.0000
vn -0.9563 0.2330 0.1765
vn 0.0000 -0.0000 -1.0000
vn -0.1736 0.9290 -0.3269
vn 0.0000 0.9433 -0.3320
vn 0.0000 -1.0000 -0.0000
vn 0.0000 0.9404 -0.3402
vn -0.8053 -0.5913 -0.0435
vn -0.8943 0.0000 -0.4476
vn -0.6553 0.3980 -0.6420
vn -0.9766 -0.2078 -0.0561
vn 0.0000 -0.9923 -0.1236
vn 0.0000 0.9096 -0.4154
vn -0.9721 -0.2068 -0.1107
vn -0.7071 0.5026 -0.4974
vn -0.9971 0.0024 -0.0760
vn -0.9942 0.0037 -0.1071
vn -0.7434 -0.6684 0.0254
vn -0.9766 0.1087 -0.1856
vn -0.9795 0.0839 -0.1830
vn -0.9860 0.0039 -0.1667
vn -0.8057 -0.5916 0.0290
vn -0.7950 -0.6059 0.0283
vn 0.1136 0.0000 0.9935
vn 0.1136 -0.0000 0.9935
vn 0.1146 -0.0310 0.9929
vn -0.4951 0.0000 -0.8688
vn -0.4307 0.3760 -0.8204
vn -0.0581 0.9734 -0.2218
vn -0.2104 0.8683 -0.4492
vn -0.0427 0.9853 -0.1654
vn -0.0299 0.9509 -0.3081
vn -0.0501 -0.9752 0.2157
vn 0.1074 -0.9705 0.2160
vn -0.9952 0.0000 -0.0977
vn 0.1910 0.9805 -0.0453
vn 0.4966 0.8677 -0.0232
vn 0.1837 0.9830 -0.0000
vn 0.9865 0.1620 0.0236
vn 0.8462 0.5324 0.0226
vn 0.9992 0.0214 0.0329
vn 0.8646 -0.5022 0.0127
vn 0.7034 -0.7107 0.0102
vn 0.8406 0.5106 -0.1806
vn 0.8461 0.5010 -0.1818
vn 0.8519 0.4914 -0.1812
vn 0.8306 0.5559 0.0336
vn 0.8259 0.5620 0.0451
vn 0.8928 0.4502 0.0175
vn 0.8959 0.4438 0.0197
vn 0.8878 0.4602 -0.0000
vn 0.9030 0.4155 -0.1090
vn 0.9573 0.2886 -0.0198
vn 0.1736 0.9290 -0.3269
vn 0.9766 -0.2078 -0.0561
vn 0.8053 -0.5913 -0.0435
vn 0.8943 0.0000 -0.4476
vn 0.6553 0.3980 -0.6420
vn 0.7071 0.5026 -0.4974
vn 0.9721 -0.2068 -0.1107
vn 0.9971 0.0024 -0.0760
vn 0.7434 -0.6684 0.0254
vn 0.9942 0.0037 -0.1071
vn 0.9860 0.0039 -0.1667
vn 0.9795 0.0839 -0.1830
vn 0.9766 0.1087 -0.1856
vn 0.7950 -0.6059 0.0283
vn 0.8057 -0.5916 0.0290
vn -0.1146 -0.0310 0.9929
vn -0.1136 -0.0000 0.9935
vn -0.1136 0.0000 0.9935
vn 0.4307 0.3760 -0.8204
vn 0.4951 0.0000 -0.8688
vn 0.2104 0.8683 -0.4492
vn 0.0581 0.9734 -0.2218
vn 0.0299 0.9509 -0.3081
vn 0.0427 0.9853 -0.1654
vn 0.0501 -0.9752 0.2157
vn -0.1074 -0.9705 0.2160
vn 0.9952 0.0000 -0.0977
vn 0.0000 -0.7448 0.6673
vn 0.0000 -0.9351 -0.3545
vn -0.9998 0.0113 0.0138
vn -0.9988 0.0465 0.0176
vn 0.0000 0.6346 0.7729
vn 0.9996 0.0264 0.0100
vn 0.9990 0.0281 0.0342
vn -0.9232 0.3685 0.1090
vn -0.8245 0.5611 0.0737
vn -0.8269 0.5574 0.0744
vn -0.9249 0.3641 0.1097
vn 0.8269 0.5574 0.0744
vn 0.8245 0.5611 0.0737
vn 0.9232 0.3685 0.1090
vn 0.9249 0.3641 0.1097
vn 0.6494 0.7436 -0.1589
vn 0.4485 0.8678 -0.2140
vn 0.5410 -0.3682 0.7561
vn -0.5648 -0.8127 0.1436
vn -0.6091 -0.7649 0.2097
vn -0.4255 0.7512 -0.5046
vn -0.5491 0.8215 -0.1537
vn -0.5941 0.7716 -0.2274
vn 0.4255 0.7512 -0.5046
vn 0.6578 -0.7385 0.1477
vn 0.4745 -0.8574 0.1991
vn -0.5410 -0.3682 0.7561
vn -0.0000 0.9319 -0.3628
vn 0.0000 0.9319 -0.3628
vn 0.0087 0.9318 -0.3628
vn 0.0037 0.9404 -0.3402
vn -0.0037 0.9404 -0.3402
vn -0.0087 0.9318 -0.3628
vn 0.7869 0.6117 -0.0809
vn 0.7858 0.6130 -0.0827
vn -0.7857 0.6132 -0.0817
vn -0.7889 0.6092 -0.0806
vn -0.7230 0.4419 -0.5310
vn -0.7229 0.4431 -0.5302
vn 0.7226 0.4426 -0.5310
vn 0.7241 0.4412 -0.5301
vn 0.9755 -0.1120 0.1892
vn 0.0106 -0.9518 0.3066
vn 0.0629 -0.9718 0.2271
vn 0.0358 -0.9831 0.1796
vn -0.0015 -0.9783 0.2070
vn -0.9755 -0.1120 0.1892
vn -0.1162 -0.9404 0.3196
vn -0.0001 -0.9754 0.2205
vn -0.0358 -0.9831 0.1796
vn 0.0015 -0.9783 0.2070
vn 0.1091 -0.1354 0.9848
vn 0.0906 -0.1506 0.9844
vn 0.9402 -0.2965 0.1679
vn 0.9410 -0.2944 0.1670
vn -0.4348 -0.5318 -0.7267
vn -0.4353 -0.5384 -0.7216
vn -0.9197 -0.3922 -0.0196
vn -0.9203 -0.3906 -0.0196
vn -0.1088 -0.1427 0.9838
vn -0.0924 -0.1307 0.9871
vn 0.9203 -0.3908 -0.0200
vn 0.9196 -0.3923 -0.0192
vn 0.4353 -0.5384 -0.7216
vn 0.4348 -0.5318 -0.7267
vn -0.9409 -0.2944 0.1675
vn -0.9401 -0.2969 0.1674
vn -0.4240 -0.5308 -0.7338
vn -0.4326 -0.5401 -0.7219
vn 0.4240 -0.5308 -0.7338
vn 0.4326 -0.5401 -0.7219
# 179 vertex normals

vt -9.0000 0.0000 0.0000
vt -9.0000 10.0000 0.0000
vt -19.0000 10.0000 0.0000
vt -19.0000 0.0000 0.0000
vt -17.5370 0.0000 0.0000
vt -10.4630 0.0000 0.0000
vt -9.0000 20.0000 0.0000
vt -19.0000 20.0000 0.0000
vt 10.0000 0.0000 0.0000
vt 20.0000 0.0000 0.0000
vt 20.0000 10.0000 0.0000
vt 10.0000 10.0000 0.0000
vt 20.0000 20.0000 0.0000
vt 10.0000 20.0000 0.0000
vt 11.4630 0.0000 0.0000
vt 18.5370 0.0000 0.0000
vt 18.5370 10.0000 0.0000
vt 11.4630 10.0000 0.0000
vt 20.0000 11.4630 0.0000
vt 20.0000 18.5370 0.0000
vt 0.0000 0.0000 0.0000
vt 10.0000 7.4851 0.0000
vt 0.0000 10.0000 0.0000
vt 20.0000 6.6462 0.0000
vt 15.7876 10.0000 0.0000
vt 10.0000 19.2111 0.0000
vt 0.0000 18.5370 0.0000
vt 0.0000 11.4630 0.0000
vt 10.0000 15.3967 0.0000
vt 10.0000 14.6078 0.0000
vt 5.0000 10.0000 0.0000
vt 0.0000 20.0000 0.0000
vt 0.0000 4.8355 0.0000
vt 0.0000 6.6462 0.0000
vt 20.0000 4.8355 0.0000
vt 11.2500 4.8355 0.0000
vt 8.7500 4.8355 0.0000
# 37 texture coords

o Box002
g Box002
usemtl wire_088144225
s 2
f 3/3/3 2/2/2 1/1/1 
f 5/5/1 4/4/1 3/3/3 
f 6/6/1 5/5/1 3/3/3 
f 6/6/1 3/3/3 1/1/1 
f 8/8/4 7/7/4 2/2/2 
f 2/2/2 3/3/3 8/8/4 
s 4
f 11/11/7 10/10/6 9/9/5 
f 9/9/5 12/12/8 11/11/7 
f 13/13/9 11/11/7 12/12/8 
f 12/12/8 14/14/10 13/13/9 
s 8
f 15/17/12 5/16/11 6/15/11 
f 6/15/11 16/18/13 15/17/12 
f 18/19/15 17/11/14 15/17/12 
f 19/20/15 18/19/15 15/17/12 
f 10/13/15 19/20/15 15/17/12 
f 10/13/15 15/17/12 16/18/13 
f 10/13/15 16/18/13 20/12/15 
f 9/14/15 10/13/15 20/12/15 
s 16
f 21/22/18 3/9/17 4/21/16 
f 22/12/19 21/22/18 4/21/16 
f 17/23/20 22/12/19 4/21/16 
f 25/25/23 24/11/22 23/24/21 
f 18/28/26 19/27/25 26/26/24 
f 26/26/24 27/29/27 18/28/26 
f 26/26/24 11/14/29 13/13/28 
f 27/29/27 26/26/24 13/13/28 
f 28/30/30 27/29/27 13/13/28 
f 28/30/30 13/13/28 24/11/22 
f 28/30/30 24/11/22 25/25/23 
s 32
f 31/31/31 30/9/31 29/21/31 
f 13/32/32 14/14/33 24/23/32 
s off
f 32/9/34 7/9/34 8/21/34 
f 8/21/34 33/21/34 32/9/34 
f 35/12/35 34/23/35 24/23/35 
f 33/21/36 8/21/36 36/33/36 
f 33/21/37 36/33/37 23/34/37 
f 33/21/38 23/34/38 24/23/38 
f 34/23/39 33/21/39 24/23/39 
f 30/9/40 32/9/40 33/21/40 
f 33/21/40 29/21/40 30/9/40 
f 31/31/41 34/23/41 35/12/41 
f 29/21/42 33/21/42 34/23/42 
f 34/23/43 31/31/43 29/21/43 
s 16
f 39/25/46 38/12/45 37/30/44 
f 42/24/49 41/35/48 40/22/47 
f 42/24/49 40/22/47 38/12/45 
f 42/24/49 38/12/45 39/25/46 
f 36/35/51 8/10/50 3/9/17 
f 3/9/17 21/22/18 36/35/51 
s off
f 43/12/52 22/12/52 28/30/52 
f 44/12/52 43/12/52 28/30/52 
f 38/12/53 44/12/53 28/30/53 
f 37/30/54 38/12/54 28/30/54 
f 42/24/55 23/24/55 36/35/55 
f 45/35/56 41/35/56 42/24/56 
f 46/35/56 45/35/56 42/24/56 
f 46/35/56 42/24/56 36/35/56 
f 39/25/57 25/25/57 23/24/57 
f 23/24/58 42/24/58 39/25/58 
f 28/30/59 25/25/59 39/25/59 
f 39/25/60 37/30/60 28/30/60 
f 49/12/61 48/12/61 47/36/61 
f 47/36/62 50/37/62 49/12/62 
f 21/22/63 22/12/63 36/33/63 
s 2
f 53/3/3 52/4/1 51/5/1 
f 53/3/3 51/5/1 54/6/1 
f 53/3/3 54/6/1 1/1/1 
f 2/2/2 53/3/3 1/1/1 
f 55/8/4 53/3/3 2/2/2 
f 2/2/2 7/7/4 55/8/4 
s 4
f 56/11/64 12/12/8 9/9/5 
f 9/9/5 57/10/65 56/11/64 
f 58/13/66 14/14/10 12/12/8 
f 12/12/8 56/11/64 58/13/66 
s 8
f 54/15/11 51/16/11 59/17/12 
f 59/17/12 60/18/13 54/15/11 
f 57/13/15 9/14/15 20/12/15 
f 59/17/12 62/11/14 61/19/15 
f 59/17/12 61/19/15 63/20/15 
f 59/17/12 63/20/15 57/13/15 
f 60/18/13 59/17/12 57/13/15 
f 60/18/13 57/13/15 20/12/15 
s 16
f 64/12/69 62/23/68 52/21/67 
f 65/22/70 64/12/69 52/21/67 
f 53/9/71 65/22/70 52/21/67 
f 68/11/74 67/25/73 66/24/72 
f 69/26/77 63/27/76 61/28/75 
f 61/28/75 70/29/78 69/26/77 
f 58/13/80 56/14/79 69/26/77 
f 58/13/80 69/26/77 70/29/78 
f 58/13/80 70/29/78 71/30/81 
f 68/11/74 58/13/80 71/30/81 
f 68/11/74 71/30/81 67/25/73 
s 32
f 30/9/31 31/31/31 72/21/31 
f 14/14/33 58/32/82 68/23/82 
s off
f 32/9/34 73/21/34 55/21/34 
f 55/21/34 7/9/34 32/9/34 
f 68/23/35 74/23/35 35/12/35 
f 73/21/83 74/23/83 68/23/83 
f 75/33/84 55/21/84 73/21/84 
f 66/34/85 75/33/85 73/21/85 
f 66/34/86 73/21/86 68/23/86 
f 30/9/40 72/21/40 73/21/40 
f 73/21/40 32/9/40 30/9/40 
f 74/23/41 31/31/41 35/12/41 
f 72/21/87 31/31/87 74/23/87 
f 74/23/88 73/21/88 72/21/88 
s 16
f 78/12/91 77/25/90 76/30/89 
f 81/22/94 80/35/93 79/24/92 
f 78/12/91 81/22/94 79/24/92 
f 78/12/91 79/24/92 77/25/90 
f 75/35/95 65/22/70 53/9/71 
f 53/9/71 55/10/96 75/35/95 
s off
f 78/12/97 76/30/97 71/30/97 
f 82/12/98 78/12/98 71/30/98 
f 83/12/99 82/12/99 71/30/99 
f 64/12/99 83/12/99 71/30/99 
f 79/24/100 80/35/100 84/35/100 
f 79/24/100 84/35/100 85/35/100 
f 79/24/100 85/35/100 75/35/100 
f 66/24/101 79/24/101 75/35/101 
f 77/25/102 79/24/102 66/24/102 
f 66/24/103 67/25/103 77/25/103 
f 71/30/104 76/30/104 77/25/104 
f 77/25/105 67/25/105 71/30/105 
f 88/36/106 87/12/106 86/12/106 
f 86/12/107 89/37/107 88/36/107 
f 64/12/108 65/22/108 75/33/108 
s 8
f 17/11/14 4/10/11 5/16/11 
f 5/16/11 15/17/12 17/11/14 
f 92/15/109 91/9/109 90/12/109 
f 90/12/109 93/18/109 92/15/109 
f 51/16/11 52/10/11 62/11/14 
f 62/11/14 59/17/12 51/16/11 
f 94/18/109 90/12/109 91/9/109 
f 91/9/109 95/15/109 94/18/109 
s off
f 91/9/110 1/9/110 54/15/110 
f 54/15/110 95/15/110 91/9/110 
f 92/15/110 6/15/110 1/9/110 
f 1/9/110 91/9/110 92/15/110 
f 93/18/111 16/18/111 6/15/111 
f 6/15/112 92/15/112 93/18/112 
f 90/12/113 20/12/113 16/18/113 
f 16/18/113 93/18/113 90/12/113 
f 94/18/113 60/18/113 20/12/113 
f 20/12/113 90/12/113 94/18/113 
f 95/15/114 54/15/114 60/18/114 
f 60/18/115 94/18/115 95/15/115 
s 16
f 98/27/118 97/32/117 96/14/116 
f 96/14/116 99/26/119 98/27/118 
f 27/29/27 28/30/30 22/12/19 
f 27/29/27 22/12/19 17/23/20 
f 27/29/27 17/23/20 18/28/26 
f 102/14/122 101/32/121 100/27/120 
f 100/27/120 103/26/123 102/14/122 
f 62/23/68 64/12/69 71/30/81 
f 61/28/75 62/23/68 71/30/81 
f 61/28/75 71/30/81 70/29/78 
s off
f 97/32/124 10/32/124 11/14/124 
f 11/14/125 96/14/125 97/32/125 
f 98/27/126 19/27/126 10/32/126 
f 10/32/126 97/32/126 98/27/126 
f 99/26/127 26/26/127 19/27/127 
f 19/27/128 98/27/128 99/26/128 
f 96/14/129 11/14/129 26/26/129 
f 26/26/129 99/26/129 96/14/129 
f 102/14/130 56/14/130 57/32/130 
f 57/32/131 101/32/131 102/14/131 
f 103/26/132 69/26/132 56/14/132 
f 56/14/132 102/14/132 103/26/132 
f 100/27/133 63/27/133 69/26/133 
f 69/26/134 103/26/134 100/27/134 
f 101/32/135 57/32/135 63/27/135 
f 63/27/135 100/27/135 101/32/135 
s 32
f 106/23/138 105/12/137 104/14/136 
s off
f 107/12/139 105/12/139 106/23/139 
f 108/23/140 105/12/140 107/12/140 
s 32
f 104/14/136 105/12/137 108/23/141 
s off
f 104/14/142 14/14/142 68/23/142 
f 68/23/143 106/23/143 104/14/143 
f 108/23/144 24/23/144 14/14/144 
f 14/14/145 104/14/145 108/23/145 
f 107/12/146 35/12/146 24/23/146 
f 24/23/147 108/23/147 107/12/147 
f 106/23/148 68/23/148 35/12/148 
f 35/12/149 107/12/149 106/23/149 
f 38/12/150 40/22/150 41/35/150 
f 44/12/151 38/12/151 41/35/151 
f 44/12/152 41/35/152 45/36/152 
f 46/37/153 36/33/153 22/12/153 
f 22/12/154 43/12/154 46/37/154 
f 80/35/155 81/22/155 78/12/155 
f 84/36/156 80/35/156 78/12/156 
f 84/36/157 78/12/157 82/12/157 
f 64/12/158 75/33/158 85/37/158 
f 85/37/159 83/12/159 64/12/159 
f 49/12/160 43/12/160 44/12/160 
f 44/12/161 48/12/161 49/12/161 
f 109/37/162 46/37/162 43/12/162 
f 50/37/162 109/37/162 43/12/162 
f 49/12/163 50/37/163 43/12/163 
f 109/37/164 110/36/164 45/36/164 
f 45/36/165 46/37/165 109/37/165 
f 48/12/166 44/12/166 45/36/166 
f 110/36/167 47/36/167 48/12/167 
f 110/36/167 48/12/167 45/36/167 
f 87/12/168 82/12/168 83/12/168 
f 83/12/169 86/12/169 87/12/169 
f 111/36/170 84/36/170 82/12/170 
f 88/36/170 111/36/170 82/12/170 
f 87/12/171 88/36/171 82/12/171 
f 112/37/172 85/37/172 84/36/172 
f 84/36/173 111/36/173 112/37/173 
f 86/12/174 83/12/174 85/37/174 
f 112/37/175 89/37/175 86/12/175 
f 112/37/175 86/12/175 85/37/175 
f 50/37/176 47/36/176 110/36/176 
f 110/36/177 109/37/177 50/37/177 
f 111/36/178 88/36/178 89/37/178 
f 89/37/179 112/37/179 111/36/179 
# 220 faces

