# 3ds Max Wavefront OBJ Exporter v0.97b - (c)2007 guruware
# File Created: 28.03.2020 16:35:08

mtllib spaceship.mtl

#
# object Box002
#

v  5.5354 8.3908 7.2742
v  0.0000 8.3908 7.2742
v  0.0000 6.2614 17.9503
v  8.5370 6.2614 17.9503
v  10.0000 6.2614 17.9503
v  1.4630 6.2614 17.9503
v  2.7054 6.4500 -28.7985
v  -0.0000 6.4500 -28.7985
v  6.6214 -5.7002 10.2694
v  2.1623 -1.9278 44.7323
v  0.0000 -3.1383 44.9896
v  0.0000 -6.9108 10.5267
v  6.6214 -7.7794 0.4879
v  0.0000 -8.9899 0.7452
v  6.1548 5.3267 43.1904
v  1.0548 5.3267 43.1904
v  6.4712 4.2654 43.4159
v  7.2096 5.3267 43.1904
v  2.9007 -0.8665 44.5067
v  0.0000 5.3267 43.1904
v  10.0000 2.8338 1.4480
v  10.0000 1.4456 1.7431
v  8.3621 -1.4237 -11.7557
v  5.1329 -4.5493 -26.4606
v  7.1700 -1.2688 -27.1579
v  7.1157 -4.9761 9.0902
v  9.5057 -1.4746 3.3890
v  10.0000 -0.7504 2.2098
v  -0.0000 -0.7026 -47.7250
v  -0.0000 1.0740 -48.1026
v  1.2909 1.0740 -48.1026
v  -0.0000 4.3709 -38.5800
v  2.1652 4.3709 -38.5800
v  -0.0000 -3.0901 -36.9941
v  3.7883 -3.0901 -36.9941
v  7.1700 0.5024 -27.5343
v  48.2369 0.7437 -1.1066
v  48.7966 1.3928 6.2901
v  48.7966 -0.0475 6.6437
v  47.0448 1.4080 -4.4947
v  47.0448 2.5693 -5.3579
v  48.7966 2.2464 5.5042
v  26.9735 1.4225 3.7324
v  31.8231 1.4159 4.3008
v  29.5996 1.6650 -15.0601
v  24.6152 1.4066 -17.8321
v  28.2195 5.4716 2.4177
v  30.0034 5.3805 2.6257
v  28.0834 5.6147 -14.0876
v  26.3069 5.4324 -15.0778
v  -5.5354 8.3908 7.2742
v  -10.0000 6.2614 17.9503
v  -8.5370 6.2614 17.9503
v  -1.4630 6.2614 17.9503
v  -2.7054 6.4500 -28.7985
v  -6.6214 -5.7002 10.2694
v  -2.1623 -1.9278 44.7323
v  -6.6214 -7.7794 0.4879
v  -6.1548 5.3267 43.1904
v  -1.0548 5.3267 43.1904
v  -7.2096 5.3267 43.1904
v  -6.4712 4.2654 43.4159
v  -2.9007 -0.8665 44.5067
v  -10.0000 1.4456 1.7431
v  -10.0000 2.8338 1.4480
v  -5.1329 -4.5493 -26.4606
v  -8.3621 -1.4237 -11.7557
v  -7.1700 -1.2688 -27.1578
v  -7.1157 -4.9761 9.0902
v  -9.5057 -1.4746 3.3890
v  -10.0000 -0.7505 2.2098
v  -1.2909 1.0740 -48.1026
v  -2.1652 4.3709 -38.5800
v  -3.7883 -3.0901 -36.9941
v  -7.1700 0.5024 -27.5343
v  -48.7966 1.3928 6.2901
v  -48.2369 0.7437 -1.1066
v  -48.7966 -0.0475 6.6437
v  -48.7966 2.2464 5.5043
v  -47.0448 2.5693 -5.3578
v  -47.0448 1.4080 -4.4947
v  -31.8231 1.4159 4.3008
v  -26.9735 1.4225 3.7324
v  -29.5996 1.6650 -15.0600
v  -24.6152 1.4066 -17.8321
v  -28.0834 5.6147 -14.0876
v  -30.0034 5.3805 2.6257
v  -28.2195 5.4716 2.4177
v  -26.3069 5.4324 -15.0778
v  11.5691 -8.2828 57.3660
v  10.8307 -9.3440 57.5916
v  15.2898 -10.8182 33.9412
v  15.7841 -10.0941 32.7622
v  -15.2898 -10.8182 33.9413
v  -10.8307 -9.3440 57.5916
v  -11.5691 -8.2828 57.3660
v  -15.7841 -10.0941 32.7622
v  -2.0035 -8.5514 -26.6632
v  -0.0000 -8.5013 -27.0784
v  -0.0000 -10.3019 -16.0467
v  -0.0000 -7.9891 -30.7758
v  2.0035 -8.5514 -26.6632
v  25.2158 2.8358 -16.8544
v  29.0613 3.0671 -14.7148
v  -29.0613 3.0671 -14.7148
v  -25.2158 2.8357 -16.8544
# 106 vertices

vn -0.0000 0.9961 0.0885
vn -0.0000 0.9975 0.0715
vn -0.0000 0.9807 0.1956
vn -0.0000 0.9986 -0.0537
vn 0.1910 -0.9685 0.1595
vn 0.4966 -0.8536 0.1577
vn 0.0000 -0.9852 0.1716
vn 0.0000 -0.9874 0.1582
vn 0.1837 -0.9615 0.2044
vn 0.0000 -0.9781 0.2079
vn 0.0000 0.7653 0.6436
vn -0.0000 0.9993 0.0370
vn 0.0000 0.5761 0.8174
vn 0.0000 0.2079 0.9781
vn -0.0000 0.8804 0.4743
vn 0.8646 0.4939 -0.0920
vn 0.7034 0.6973 -0.1378
vn 0.9865 -0.1536 0.0568
vn 0.9951 -0.0558 0.0810
vn 0.8472 -0.5136 0.1356
vn 0.8461 -0.5279 -0.0737
vn 0.8519 -0.5183 -0.0751
vn 0.8406 -0.5370 -0.0705
vn 0.8299 -0.5373 0.1502
vn 0.8259 -0.5403 0.1610
vn 0.8928 -0.4367 0.1107
vn 0.9427 -0.3093 0.1251
vn 0.8878 -0.4501 0.0957
vn 0.9030 -0.4291 -0.0202
vn 0.9563 -0.1912 0.2211
vn -0.0000 -0.2079 -0.9781
vn 0.1736 -0.9767 -0.1266
vn 0.0000 -0.9917 -0.1286
vn -0.0000 0.9781 -0.2079
vn 0.0000 -0.9906 -0.1372
vn 0.8053 0.5693 -0.1655
vn 0.8943 -0.0931 -0.4378
vn 0.6553 -0.5228 -0.5452
vn 0.9766 0.1916 -0.0981
vn -0.0000 0.9449 -0.3272
vn 0.0000 -0.9761 -0.2172
vn 0.9721 0.1793 -0.1513
vn 0.7071 -0.5950 -0.3820
vn 0.7434 0.6591 -0.1141
vn 0.9942 -0.0259 -0.1040
vn 0.9971 -0.0181 -0.0738
vn 0.9860 -0.0385 -0.1622
vn 0.9795 -0.1201 -0.1616
vn 0.9766 -0.1449 -0.1589
vn 0.7950 0.5985 -0.0983
vn 0.8057 0.5847 -0.0946
vn -0.1136 0.2066 0.9718
vn -0.1146 0.2368 0.9648
vn 0.4951 -0.1806 -0.8498
vn 0.4307 -0.5384 -0.7243
vn 0.0581 -0.9982 -0.0146
vn 0.2104 -0.9427 -0.2589
vn 0.0427 -0.9982 0.0431
vn 0.0299 -0.9942 -0.1037
vn 0.0501 0.9987 0.0082
vn -0.1074 0.9942 0.0095
vn 0.9952 -0.0203 -0.0956
vn -0.1910 -0.9685 0.1595
vn -0.4966 -0.8536 0.1577
vn -0.1837 -0.9615 0.2044
vn -0.9992 -0.0141 0.0366
vn -0.8462 -0.5161 0.1328
vn -0.9865 -0.1536 0.0568
vn -0.8646 0.4939 -0.0920
vn -0.7034 0.6973 -0.1378
vn -0.8519 -0.5183 -0.0751
vn -0.8461 -0.5279 -0.0737
vn -0.8406 -0.5370 -0.0705
vn -0.8928 -0.4367 0.1107
vn -0.8259 -0.5403 0.1610
vn -0.8306 -0.5368 0.1484
vn -0.8959 -0.4300 0.1115
vn -0.9030 -0.4291 -0.0202
vn -0.8878 -0.4501 0.0957
vn -0.9573 -0.2864 0.0406
vn -0.1736 -0.9767 -0.1266
vn -0.9766 0.1916 -0.0981
vn -0.8053 0.5693 -0.1655
vn -0.8943 -0.0931 -0.4378
vn -0.6553 -0.5228 -0.5452
vn -0.7071 -0.5950 -0.3820
vn -0.9721 0.1793 -0.1513
vn -0.9942 -0.0259 -0.1040
vn -0.7434 0.6591 -0.1141
vn -0.9971 -0.0181 -0.0738
vn -0.9766 -0.1449 -0.1589
vn -0.9795 -0.1201 -0.1616
vn -0.9860 -0.0385 -0.1622
vn -0.7950 0.5985 -0.0983
vn -0.8057 0.5847 -0.0946
vn 0.1146 0.2368 0.9648
vn 0.1136 0.2066 0.9718
vn -0.4307 -0.5384 -0.7243
vn -0.4951 -0.1806 -0.8498
vn -0.2104 -0.9427 -0.2589
vn -0.0581 -0.9982 -0.0146
vn -0.0299 -0.9942 -0.1037
vn -0.0427 -0.9982 0.0431
vn -0.0501 0.9987 0.0082
vn 0.1074 0.9942 0.0095
vn -0.9952 -0.0203 -0.0956
vn 0.8269 -0.5298 0.1887
vn 0.8245 -0.5335 0.1887
vn 0.9232 -0.3378 0.1832
vn 0.9249 -0.3333 0.1830
vn -0.9232 -0.3378 0.1832
vn -0.8245 -0.5335 0.1887
vn -0.8269 -0.5298 0.1887
vn -0.9249 -0.3333 0.1830
vn -0.6494 -0.7604 -0.0008
vn -0.4485 -0.8933 -0.0289
vn -0.5410 0.5174 0.6630
vn 0.5648 0.8248 -0.0285
vn 0.6091 0.7918 0.0461
vn 0.4255 -0.8397 -0.3374
vn 0.5491 -0.8355 0.0205
vn 0.5941 -0.8020 -0.0620
vn -0.4255 -0.8397 -0.3374
vn -0.6578 0.7531 -0.0091
vn -0.4745 0.8801 0.0165
vn 0.5410 0.5174 0.6630
vn -0.0087 -0.9869 -0.1611
vn 0.0000 -0.9870 -0.1611
vn -0.0037 -0.9906 -0.1372
vn 0.0037 -0.9906 -0.1372
vn 0.0087 -0.9869 -0.1611
vn -0.7869 -0.6152 0.0480
vn -0.7858 -0.6168 0.0466
vn 0.7857 -0.6168 0.0476
vn 0.7889 -0.6126 0.0478
vn 0.7230 -0.5426 -0.4275
vn 0.7229 -0.5437 -0.4265
vn -0.7226 -0.5433 -0.4274
vn -0.7241 -0.5418 -0.4268
vn -0.9755 0.1489 0.1618
vn -0.0106 0.9947 0.1020
vn -0.0629 0.9978 0.0201
vn -0.0358 0.9990 -0.0287
vn 0.0015 1.0000 -0.0009
vn 0.9755 0.1489 0.1618
vn 0.1162 0.9863 0.1171
vn 0.0001 0.9999 0.0129
vn 0.0358 0.9990 -0.0287
vn -0.0015 1.0000 -0.0009
vn -0.1091 0.3372 0.9351
vn -0.0906 0.3520 0.9316
vn -0.9402 0.3249 0.1026
vn -0.9410 0.3227 0.1021
vn 0.4348 0.3691 -0.8214
vn 0.4353 0.3766 -0.8178
vn 0.9197 0.3796 -0.1007
vn 0.9203 0.3780 -0.1004
vn 0.1088 0.3441 0.9326
vn 0.0924 0.3331 0.9384
vn -0.9203 0.3781 -0.1008
vn -0.9196 0.3797 -0.1003
vn -0.4353 0.3766 -0.8178
vn -0.4348 0.3691 -0.8214
vn 0.9409 0.3228 0.1026
vn 0.9401 0.3252 0.1020
vn 0.4240 0.3666 -0.8281
vn 0.4326 0.3782 -0.8184
vn -0.4240 0.3666 -0.8281
vn -0.4326 0.3782 -0.8184
# 169 vertex normals

vt -19.0000 10.0000 0.0000
vt -9.0000 10.0000 0.0000
vt -9.0000 0.0000 0.0000
vt -17.5370 0.0000 0.0000
vt -19.0000 0.0000 0.0000
vt -10.4630 0.0000 0.0000
vt -19.0000 20.0000 0.0000
vt -9.0000 20.0000 0.0000
vt 20.0000 10.0000 0.0000
vt 20.0000 0.0000 0.0000
vt 10.0000 0.0000 0.0000
vt 10.0000 10.0000 0.0000
vt 20.0000 20.0000 0.0000
vt 10.0000 20.0000 0.0000
vt 18.5370 10.0000 0.0000
vt 18.5370 0.0000 0.0000
vt 11.4630 0.0000 0.0000
vt 11.4630 10.0000 0.0000
vt 20.0000 11.4630 0.0000
vt 20.0000 18.5370 0.0000
vt 10.0000 7.4851 0.0000
vt 0.0000 0.0000 0.0000
vt 0.0000 10.0000 0.0000
vt 15.7876 10.0000 0.0000
vt 20.0000 6.6462 0.0000
vt 0.0000 11.4630 0.0000
vt 0.0000 18.5370 0.0000
vt 10.0000 19.2111 0.0000
vt 10.0000 15.3967 0.0000
vt 10.0000 14.6078 0.0000
vt 5.0000 10.0000 0.0000
vt 0.0000 20.0000 0.0000
vt 0.0000 4.8355 0.0000
vt 0.0000 6.6462 0.0000
vt 20.0000 4.8355 0.0000
vt 11.2500 4.8355 0.0000
vt 8.7500 4.8355 0.0000
# 37 texture coords

o Box002
g Box002
usemtl spaceship_spaceship_spaceship_spaceship_spaceship_spaceship_wire_088144225
s 2
f 1/1/1 2/2/2 3/3/3 
f 4/4/3 5/5/3 1/1/1 
f 6/6/3 4/4/3 1/1/1 
f 6/6/3 1/1/1 3/3/3 
f 7/7/4 8/8/4 2/2/2 
f 2/2/2 1/1/1 7/7/4 
s 4
f 9/9/5 10/10/6 11/11/7 
f 11/11/7 12/12/8 9/9/5 
f 13/13/9 9/9/5 12/12/8 
f 12/12/8 14/14/10 13/13/9 
s 8
f 15/15/11 4/16/12 6/17/12 
f 6/17/12 16/18/13 15/15/11 
f 17/19/14 18/9/15 15/15/11 
f 19/20/14 17/19/14 15/15/11 
f 10/13/14 19/20/14 15/15/11 
f 10/13/14 15/15/11 16/18/13 
f 10/13/14 16/18/13 20/12/14 
f 11/14/14 10/13/14 20/12/14 
s 16
f 21/21/16 1/11/17 5/22/18 
f 22/12/19 21/21/16 5/22/18 
f 18/23/20 22/12/19 5/22/18 
f 23/24/21 24/9/22 25/25/23 
f 17/26/24 19/27/25 26/28/26 
f 26/28/26 27/29/27 17/26/24 
f 26/28/26 9/14/28 13/13/29 
f 27/29/27 26/28/26 13/13/29 
f 28/30/30 27/29/27 13/13/29 
f 28/30/30 13/13/29 24/9/22 
f 28/30/30 24/9/22 23/24/21 
s 32
f 29/31/31 30/11/31 31/22/31 
f 13/32/32 14/14/33 24/23/32 
s off
f 32/11/34 8/11/34 7/22/34 
f 7/22/34 33/22/34 32/11/34 
f 34/12/35 35/23/35 24/23/35 
f 33/22/36 7/22/36 36/33/36 
f 33/22/37 36/33/37 25/34/37 
f 33/22/38 25/34/38 24/23/38 
f 35/23/39 33/22/39 24/23/39 
f 30/11/40 32/11/40 33/22/40 
f 33/22/40 31/22/40 30/11/40 
f 29/31/41 35/23/41 34/12/41 
f 31/22/42 33/22/42 35/23/42 
f 35/23/43 29/31/43 31/22/43 
s 16
f 37/24/44 38/12/45 39/30/46 
f 40/25/47 41/35/48 42/21/49 
f 40/25/47 42/21/49 38/12/45 
f 40/25/47 38/12/45 37/24/44 
f 36/35/50 7/10/51 1/11/17 
f 1/11/17 21/21/16 36/35/50 
s off
f 43/12/52 22/12/52 28/30/52 
f 44/12/52 43/12/52 28/30/52 
f 38/12/52 44/12/52 28/30/52 
f 39/30/53 38/12/53 28/30/53 
f 40/25/54 25/25/54 36/35/54 
f 45/35/55 41/35/55 40/25/55 
f 46/35/55 45/35/55 40/25/55 
f 46/35/55 40/25/55 36/35/55 
f 37/24/56 23/24/56 25/25/56 
f 25/25/57 40/25/57 37/24/57 
f 28/30/58 23/24/58 37/24/58 
f 37/24/59 39/30/59 28/30/59 
f 47/12/60 48/12/60 49/36/60 
f 49/36/61 50/37/61 47/12/61 
f 21/21/62 22/12/62 36/33/62 
s 2
f 51/1/1 52/5/3 53/4/3 
f 51/1/1 53/4/3 54/6/3 
f 51/1/1 54/6/3 3/3/3 
f 2/2/2 51/1/1 3/3/3 
f 55/7/4 51/1/1 2/2/2 
f 2/2/2 8/8/4 55/7/4 
s 4
f 56/9/63 12/12/8 11/11/7 
f 11/11/7 57/10/64 56/9/63 
f 58/13/65 14/14/10 12/12/8 
f 12/12/8 56/9/63 58/13/65 
s 8
f 54/17/12 53/16/12 59/15/11 
f 59/15/11 60/18/13 54/17/12 
f 57/13/14 11/14/14 20/12/14 
f 59/15/11 61/9/15 62/19/14 
f 59/15/11 62/19/14 63/20/14 
f 59/15/11 63/20/14 57/13/14 
f 60/18/13 59/15/11 57/13/14 
f 60/18/13 57/13/14 20/12/14 
s 16
f 64/12/66 61/23/67 52/22/68 
f 65/21/69 64/12/66 52/22/68 
f 51/11/70 65/21/69 52/22/68 
f 66/9/71 67/24/72 68/25/73 
f 69/28/74 63/27/75 62/26/76 
f 62/26/76 70/29/77 69/28/74 
f 58/13/78 56/14/79 69/28/74 
f 58/13/78 69/28/74 70/29/77 
f 58/13/78 70/29/77 71/30/80 
f 66/9/71 58/13/78 71/30/80 
f 66/9/71 71/30/80 67/24/72 
s 32
f 30/11/31 29/31/31 72/22/31 
f 14/14/33 58/32/81 66/23/81 
s off
f 32/11/34 73/22/34 55/22/34 
f 55/22/34 8/11/34 32/11/34 
f 66/23/35 74/23/35 34/12/35 
f 73/22/82 74/23/82 66/23/82 
f 75/33/83 55/22/83 73/22/83 
f 68/34/84 75/33/84 73/22/84 
f 68/34/85 73/22/85 66/23/85 
f 30/11/40 72/22/40 73/22/40 
f 73/22/40 32/11/40 30/11/40 
f 74/23/41 29/31/41 34/12/41 
f 72/22/86 29/31/86 74/23/86 
f 74/23/87 73/22/87 72/22/87 
s 16
f 76/12/88 77/24/89 78/30/90 
f 79/21/91 80/35/92 81/25/93 
f 76/12/88 79/21/91 81/25/93 
f 76/12/88 81/25/93 77/24/89 
f 75/35/94 65/21/69 51/11/70 
f 51/11/70 55/10/95 75/35/94 
s off
f 76/12/96 78/30/96 71/30/96 
f 82/12/97 76/12/97 71/30/97 
f 83/12/97 82/12/97 71/30/97 
f 64/12/97 83/12/97 71/30/97 
f 81/25/98 80/35/98 84/35/98 
f 81/25/98 84/35/98 85/35/98 
f 81/25/98 85/35/98 75/35/98 
f 68/25/99 81/25/99 75/35/99 
f 77/24/100 81/25/100 68/25/100 
f 68/25/101 67/24/101 77/24/101 
f 71/30/102 78/30/102 77/24/102 
f 77/24/103 67/24/103 71/30/103 
f 86/36/104 87/12/104 88/12/104 
f 88/12/105 89/37/105 86/36/105 
f 64/12/106 65/21/106 75/33/106 
s 8
f 18/9/15 5/10/12 4/16/12 
f 4/16/12 15/15/11 18/9/15 
f 53/16/12 52/10/12 61/9/15 
f 61/9/15 59/15/11 53/16/12 
s 16
f 90/27/107 91/32/108 92/14/109 
f 92/14/109 93/28/110 90/27/107 
f 27/29/27 28/30/30 22/12/19 
f 27/29/27 22/12/19 18/23/20 
f 27/29/27 18/23/20 17/26/24 
f 94/14/111 95/32/112 96/27/113 
f 96/27/113 97/28/114 94/14/111 
f 61/23/67 64/12/66 71/30/80 
f 62/26/76 61/23/67 71/30/80 
f 62/26/76 71/30/80 70/29/77 
s off
f 91/32/115 10/32/115 9/14/115 
f 9/14/116 92/14/116 91/32/116 
f 90/27/117 19/27/117 10/32/117 
f 10/32/117 91/32/117 90/27/117 
f 93/28/118 26/28/118 19/27/118 
f 19/27/119 90/27/119 93/28/119 
f 92/14/120 9/14/120 26/28/120 
f 26/28/120 93/28/120 92/14/120 
f 94/14/121 56/14/121 57/32/121 
f 57/32/122 95/32/122 94/14/122 
f 97/28/123 69/28/123 56/14/123 
f 56/14/123 94/14/123 97/28/123 
f 96/27/124 63/27/124 69/28/124 
f 69/28/125 97/28/125 96/27/125 
f 95/32/126 57/32/126 63/27/126 
f 63/27/126 96/27/126 95/32/126 
s 32
f 98/23/127 99/12/128 100/14/128 
s off
f 101/12/129 99/12/129 98/23/129 
f 102/23/130 99/12/130 101/12/130 
s 32
f 100/14/128 99/12/128 102/23/131 
s off
f 100/14/132 14/14/132 66/23/132 
f 66/23/133 98/23/133 100/14/133 
f 102/23/134 24/23/134 14/14/134 
f 14/14/135 100/14/135 102/23/135 
f 101/12/136 34/12/136 24/23/136 
f 24/23/137 102/23/137 101/12/137 
f 98/23/138 66/23/138 34/12/138 
f 34/12/139 101/12/139 98/23/139 
f 38/12/140 42/21/140 41/35/140 
f 44/12/141 38/12/141 41/35/141 
f 44/12/142 41/35/142 45/36/142 
f 46/37/143 36/33/143 22/12/143 
f 22/12/144 43/12/144 46/37/144 
f 80/35/145 79/21/145 76/12/145 
f 84/36/146 80/35/146 76/12/146 
f 84/36/147 76/12/147 82/12/147 
f 64/12/148 75/33/148 85/37/148 
f 85/37/149 83/12/149 64/12/149 
f 47/12/150 43/12/150 44/12/150 
f 44/12/151 48/12/151 47/12/151 
f 103/37/152 46/37/152 43/12/152 
f 50/37/152 103/37/152 43/12/152 
f 47/12/153 50/37/153 43/12/153 
f 103/37/154 104/36/154 45/36/154 
f 45/36/155 46/37/155 103/37/155 
f 48/12/156 44/12/156 45/36/156 
f 104/36/157 49/36/157 48/12/157 
f 104/36/157 48/12/157 45/36/157 
f 87/12/158 82/12/158 83/12/158 
f 83/12/159 88/12/159 87/12/159 
f 105/36/160 84/36/160 82/12/160 
f 86/36/160 105/36/160 82/12/160 
f 87/12/161 86/36/161 82/12/161 
f 106/37/162 85/37/162 84/36/162 
f 84/36/163 105/36/163 106/37/163 
f 88/12/164 83/12/164 85/37/164 
f 106/37/165 89/37/165 88/12/165 
f 106/37/165 88/12/165 85/37/165 
f 50/37/166 49/36/166 104/36/166 
f 104/36/167 103/37/167 50/37/167 
f 105/36/168 86/36/168 89/37/168 
f 89/37/169 106/37/169 105/36/169 
f 6/6/12 3/3/12 16/18/12 
f 3/3/12 20/12/12 16/18/12 
f 3/3/12 60/18/12 20/12/12 
f 3/3/12 54/6/12 60/18/12 
# 208 faces

